<svg fill="none" height="40" viewBox="0 0 220 40" width="220" xmlns="http://www.w3.org/2000/svg"><g fill="#0e1534"><path d="m20 40c11.046 0 20-8.954 20-20v-14a6 6 0 0 0 -6-6h-13v8.774c0 2.002.122 4.076 1.172 5.78a9.999 9.999 0 0 0 6.904 4.627l.383.062a.8.8 0 0 1 0 1.514l-.383.062a10 10 0 0 0 -8.257 8.257l-.062.383a.8.8 0 0 1 -1.514 0l-.062-.383a10 10 0 0 0 -4.627-6.904c-1.704-1.05-3.778-1.172-5.78-1.172h-8.75c.523 10.581 9.266 19 19.976 19z"/><path d="m0 19h8.774c2.002 0 4.076-.122 5.78-1.172a10.018 10.018 0 0 0 3.274-3.274c1.05-1.704 1.172-3.778 1.172-5.78v-8.774h-13a6 6 0 0 0 -6 6zm46.455-17a2 2 0 1 1 -4 0 2 2 0 0 1 4 0zm165.256 10.104c5.591 0 8.289 3.905 8.289 8.428v8.495h-5.851v-7.487c0-2.05-.748-3.742-2.893-3.742s-2.86 1.692-2.86 3.742v7.486h-5.851v-7.486c0-2.05-.715-3.742-2.861-3.742-2.145 0-2.893 1.692-2.893 3.742v7.486h-5.85v-8.495c0-4.523 2.697-8.428 8.288-8.428 3.056 0 5.266 1.204 6.274 3.189 1.072-1.985 3.413-3.19 6.208-3.19zm-31.284 11.716c1.885 0 2.698-1.725 2.698-3.776v-7.29h5.85v8.006c0 4.784-2.795 8.755-8.548 8.755-5.754 0-8.549-3.97-8.549-8.755v-8.006h5.851v7.29c0 2.05.812 3.776 2.698 3.776zm-17.152 5.727c-3.673 0-6.046-1.269-7.444-3.742l4.226-2.376c.585 1.041 1.462 1.562 2.925 1.562 1.203 0 1.755-.423 1.755-.944 0-1.985-8.581.033-8.581-6.28 0-3.06 2.6-5.533 7.021-5.533 3.868 0 5.981 1.887 6.924 3.71l-4.226 2.408c-.357-.976-1.463-1.562-2.568-1.562-.845 0-1.3.358-1.3.846 0 2.018 8.581.163 8.581 6.281 0 3.417-3.348 5.63-7.313 5.63zm-20.442 6.965h-5.851v-15.654c0-4.98 3.738-8.592 8.939-8.592 5.071 0 8.939 3.873 8.939 8.592 0 5.207-3.446 8.657-8.614 8.657-1.203 0-2.405-.358-3.413-.912zm3.088-12.497c1.853 0 3.088-1.432 3.088-3.125 0-1.724-1.235-3.124-3.088-3.124s-3.088 1.4-3.088 3.125c0 1.692 1.235 3.124 3.088 3.124zm-14.8-12.985c-1.918 0-3.51-1.595-3.51-3.515s1.592-3.515 3.51-3.515 3.511 1.595 3.511 3.515-1.593 3.515-3.511 3.515zm-2.925 1.724h5.851v16.273h-5.851zm-11.226 16.761c-5.071 0-8.939-3.905-8.939-8.657 0-4.719 3.868-8.624 8.939-8.624s8.939 3.905 8.939 8.624c0 4.752-3.868 8.657-8.939 8.657zm0-5.5c1.853 0 3.088-1.432 3.088-3.125 0-1.724-1.235-3.156-3.088-3.156s-3.088 1.432-3.088 3.156c0 1.693 1.235 3.125 3.088 3.125zm-19.987 12.985c-4.03 0-6.956-1.79-8.451-4.98l4.843-2.603c.52 1.107 1.495 2.246 3.51 2.246 2.114 0 3.511-1.335 3.674-3.678-.78.684-2.016 1.204-3.868 1.204-4.519 0-8.16-3.482-8.16-8.364 0-4.718 3.869-8.559 8.94-8.559 5.201 0 8.939 3.613 8.939 8.592v6.444c0 5.858-4.064 9.698-9.427 9.698zm.39-13.31c1.755 0 3.088-1.205 3.088-2.995 0-1.757-1.332-2.929-3.088-2.929-1.723 0-3.088 1.172-3.088 2.93 0 1.79 1.365 2.993 3.088 2.993zm-18.766 5.825c-5.071 0-8.94-3.905-8.94-8.657 0-4.719 3.869-8.624 8.94-8.624 5.07 0 8.939 3.905 8.939 8.624 0 4.752-3.869 8.657-8.94 8.657zm0-5.5c1.853 0 3.088-1.432 3.088-3.125 0-1.724-1.235-3.156-3.088-3.156s-3.088 1.432-3.088 3.156c0 1.693 1.235 3.125 3.088 3.125zm-19.594-16.955v16.434h9.687v5.533h-10.5c-3.705 0-5.2-1.953-5.2-5.045v-16.922z"/></g></svg>