<svg fill="none" height="42" viewBox="0 0 267 42" width="267" xmlns="http://www.w3.org/2000/svg"><path d="m37.2551 1.61586c.9252-.962476 2.1817-1.503189 3.4901-1.503189 5.8866 0 11.4341.000003 16.8972.000014 10.9878.000023 16.49 13.820215 8.7205 21.902915l-16.924 17.6061c-.7769.8083-2.1054.2358-2.1054-.9073v-15.5068l1.9558-2.0347c1.5539-1.6165.4534-4.3806-1.7442-4.3806h-24.8784z" fill="#3a04ff"/><path d="m32.7449 38.3842c-.9251.9625-2.1816 1.5032-3.49 1.5032-5.8866 0-11.4341 0-16.8972 0-10.98787-.0001-16.49006-13.8202-8.72049-21.903l16.92399-17.606031c.7769-.808277 2.1054-.235822 2.1054.907251l.0001 15.50668-1.9559 2.0348c-1.5539 1.6166-.4534 4.3806 1.7442 4.3806l24.8785-.0001z" fill="#3a04ff"/><g fill="#110051"><path d="m168.151 13.44v19.9948h5.872v-19.9948z"/><path d="m168.56 10.1137c.694.6937 1.542 1.0406 2.546 1.0406 1.003 0 1.846-.3469 2.527-1.0406.694-.69378 1.041-1.53619 1.041-2.52726 0-1.01585-.347-1.86446-1.041-2.54581-.681-.69375-1.524-1.04063-2.527-1.04063-1.004 0-1.852.34688-2.546 1.04063-.694.68135-1.041 1.52996-1.041 2.54581 0 .99107.347 1.83348 1.041 2.52726z"/><path clip-rule="evenodd" d="m177.336 41.2395v-27.7995h5.575v1.9883h.073c.351-.346.729-.6619 1.135-.9477 1.313-.9168 2.824-1.3751 4.534-1.3751 1.499 0 2.93.3902 4.293 1.1707 1.375.7804 2.49 1.9388 3.345 3.4749.854 1.5362 1.269 3.4502 1.245 5.742.012 1.7344-.23 3.2458-.725 4.5342-.496 1.276-1.165 2.3352-2.007 3.1776s-1.784 1.4742-2.825 1.8954c-1.04.4212-2.093.6318-3.159.6318-1.685 0-3.196-.4707-4.534-1.4122-.337-.2402-.656-.5003-.957-.7805h-.121v9.7001zm10.109-12.4132c.867-.0124 1.629-.2415 2.286-.6875.656-.446 1.171-1.0778 1.542-1.8954.372-.8177.552-1.7716.539-2.8618.013-1.1149-.173-2.0688-.557-2.8617-.372-.8052-.898-1.4185-1.58-1.8397-.681-.4335-1.462-.6442-2.341-.6318-.83-.0124-1.574.1921-2.23.6133-.657.4212-1.177 1.0344-1.561 1.8396-.384.7929-.576 1.753-.576 2.8803 0 1.0902.192 2.0441.576 2.8618.396.8176.929 1.4494 1.598 1.8954s1.437.6751 2.304.6875z" fill-rule="evenodd"/><path d="m203.19 33.1189c1.09.4088 2.23.6132 3.419.6132 1.363 0 2.608-.2663 3.735-.799 1.14-.5327 2.05-1.276 2.732-2.2299.694-.9663 1.04-2.0751 1.04-3.3263 0-.9911-.21-1.8273-.631-2.5086-.409-.6814-.93-1.2389-1.561-1.6725-.62-.4336-1.258-.7743-1.914-1.022-.657-.2602-1.233-.4584-1.729-.5947-.644-.1858-1.263-.3778-1.858-.576-.594-.1982-1.084-.4336-1.468-.7062-.384-.2725-.576-.6318-.576-1.0778 0-.4459.192-.8176.576-1.1149s.867-.446 1.45-.446c.693 0 1.263.1858 1.709.5575.459.3716.805.7557 1.041 1.1521l4.515-1.9512c-.569-1.2884-1.536-2.3228-2.898-3.1033-1.351-.7804-2.875-1.1707-4.572-1.1707-1.362 0-2.577.254-3.642.7619-1.053.5079-1.889 1.2141-2.509 2.1184-.607.892-.91 1.9264-.91 3.1033 0 1.115.26 2.0627.78 2.8432.521.7804 1.196 1.4246 2.026 1.9326.842.4955 1.734.8857 2.676 1.1707.409.1115.855.2353 1.338.3716.495.1363.966.2973 1.412.4832.446.1858.811.4088 1.096.6689.285.2602.428.5699.428.9292 0 .2849-.099.5512-.298.799-.185.2478-.446.4522-.78.6132-.335.1487-.725.223-1.171.223-.842 0-1.573-.2601-2.193-.7804-.619-.5204-1.083-1.0716-1.393-1.6539l-4.609 2.0255c.421 1.0035 1.047 1.883 1.877 2.6387.83.7433 1.784 1.3194 2.862 1.7282z"/><path d="m237.987 33.4348v-19.9948h5.593v2.5458h.102c.438-.6083.93-1.1224 1.478-1.5424 1.115-.8672 2.434-1.3008 3.958-1.3008 1.263 0 2.335.3097 3.215.9292.678.4617 1.231 1.0811 1.659 1.8582h.105c.633-.807 1.402-1.4389 2.305-1.8954 1.177-.5946 2.459-.892 3.847-.892 1.325 0 2.416.2354 3.27.7062.855.4583 1.524 1.0654 2.007 1.8211.483.7433.824 1.5609 1.022 2.4529.199.8795.298 1.7343.298 2.5644v12.7476h-5.91v-12.0229c0-1.0902-.229-1.9264-.687-2.5087-.446-.5946-1.103-.8919-1.97-.8919-.57 0-1.078.1301-1.524.3902-.433.2478-.78.6256-1.04 1.1335-.248.508-.372 1.1336-.372 1.8769v12.0229h-5.872v-12.0229c0-1.0902-.229-1.9264-.688-2.5087-.458-.5946-1.121-.8919-1.988-.8919-.842 0-1.542.2911-2.1.8734-.557.5698-.836 1.4246-.836 2.5644v11.9857z"/><path d="m223.617 33.7321c-1.375 0-2.626-.2911-3.753-.8733-1.128-.5947-2.026-1.4619-2.695-2.6016-.656-1.1521-.985-2.5706-.985-4.2554v-12.5618h5.872v11.7813c0 1.1521.298 2.0317.892 2.6387.607.5947 1.345.892 2.212.892.644 0 1.208-.1425 1.691-.4274.495-.2849.879-.6875 1.152-1.2079.285-.5327.427-1.1645.427-1.8954v-11.7813h5.872v12.9892c0 .7185.106 1.2388.316 1.5609.211.3221.638.6009 1.282.8362l-2.081 4.9058c-1.474-.384-2.552-.8857-3.233-1.5051-.343-.3121-.603-.6714-.78-1.0778h-.149c-.519.5216-1.095.9862-1.728 1.3937-1.252.7928-2.689 1.1892-4.312 1.1892z"/><path clip-rule="evenodd" d="m155.436 33.7321c-1.921 0-3.674-.4397-5.259-1.3193-1.574-.8796-2.831-2.0937-3.773-3.6422-.929-1.5486-1.393-3.3325-1.393-5.3518s.464-3.8032 1.393-5.3518c.942-1.5485 2.199-2.7564 3.773-3.6236 1.585-.8672 3.338-1.3008 5.259-1.3008 1.957 0 3.722.4336 5.296 1.3008 1.573.8672 2.818 2.0751 3.735 3.6236.929 1.5486 1.393 3.3325 1.393 5.3518s-.464 3.8032-1.393 5.3518c-.917 1.5485-2.168 2.7626-3.754 3.6422-1.573.8796-3.332 1.3193-5.277 1.3193zm0-5.0173c.916 0 1.74-.2229 2.471-.6689s1.307-1.0654 1.728-1.8583c.421-.7928.632-1.7158.632-2.7688 0-1.0158-.204-1.9202-.613-2.7131-.409-.7928-.973-1.4122-1.691-1.8582-.719-.4584-1.549-.6876-2.49-.6876-.929 0-1.766.223-2.509.669-.731.4336-1.307 1.0468-1.728 1.8397-.421.7928-.632 1.7096-.632 2.7502 0 1.053.211 1.976.632 2.7688.433.7929 1.016 1.4123 1.747 1.8583s1.548.6689 2.453.6689z" fill-rule="evenodd"/><path clip-rule="evenodd" d="m127.631 40.9236c1.387.4088 2.911.6132 4.571.6132 1.549 0 2.967-.1982 4.256-.5946 1.288-.384 2.403-.9663 3.344-1.7468.954-.7804 1.691-1.7467 2.212-2.8989.52-1.1521.78-2.49.78-4.0138v-18.8613h-5.333v1.9511h-.111c-.355-.3397-.739-.6494-1.153-.9291-1.288-.8796-2.793-1.3193-4.515-1.3193-1.487 0-2.918.3778-4.293 1.1335-1.375.7433-2.502 1.8583-3.382 3.3449-.867 1.4742-1.301 3.3262-1.301 5.5562 0 1.6724.254 3.128.762 4.3669.508 1.2388 1.183 2.2732 2.026 3.1033.855.8176 1.802 1.4308 2.843 1.8396 1.041.3965 2.087.5947 3.14.5947 1.698 0 3.209-.4646 4.535-1.3937.419-.2979.811-.6262 1.174-.9849h.089v1.9326c0 .9539-.309 1.722-.929 2.3042-.619.5947-1.369 1.0283-2.248 1.3008-.88.2726-1.729.4088-2.546.4088-.954 0-1.896-.1548-2.825-.4645-.917-.2974-1.722-.6566-2.415-1.0778l-1.933 4.6085c.793.4212 1.877.83 3.252 1.2264zm7.656-13.3051c-.681.446-1.468.6689-2.36.6689-.88 0-1.654-.2229-2.323-.6689-.669-.4584-1.195-1.084-1.579-1.8769-.384-.8052-.577-1.7281-.577-2.7688 0-1.0406.193-1.945.577-2.713.396-.7681.941-1.3566 1.635-1.7654.694-.4212 1.48-.6318 2.36-.6318.879 0 1.654.2044 2.323.6132.669.4089 1.195.9973 1.579 1.7654.384.7557.576 1.6662.576 2.7316 0 1.053-.198 1.9822-.594 2.7874-.397.7929-.936 1.4123-1.617 1.8583z" fill-rule="evenodd"/><path clip-rule="evenodd" d="m110.79 33.7321c-1.92 0-3.673-.4397-5.259-1.3193-1.573-.8796-2.831-2.0937-3.772-3.6422-.929-1.5486-1.394-3.3325-1.394-5.3518s.465-3.8032 1.394-5.3518c.941-1.5485 2.199-2.7564 3.772-3.6236 1.586-.8672 3.339-1.3008 5.259-1.3008 1.957 0 3.723.4336 5.296 1.3008s2.818 2.0751 3.735 3.6236c.929 1.5486 1.394 3.3325 1.394 5.3518s-.465 3.8032-1.394 5.3518c-.917 1.5485-2.168 2.7626-3.754 3.6422-1.573.8796-3.332 1.3193-5.277 1.3193zm0-5.0173c.917 0 1.74-.2229 2.471-.6689s1.307-1.0654 1.729-1.8583c.421-.7928.631-1.7158.631-2.7688 0-1.0158-.204-1.9202-.613-2.7131-.409-.7928-.972-1.4122-1.691-1.8582-.718-.4584-1.549-.6876-2.49-.6876-.929 0-1.765.223-2.509.669-.731.4336-1.307 1.0468-1.728 1.8397-.421.7928-.632 1.7096-.632 2.7502 0 1.053.211 1.976.632 2.7688.434.7929 1.016 1.4123 1.747 1.8583s1.548.6689 2.453.6689z" fill-rule="evenodd"/><path d="m84.4902 6.04409v27.39071h15.9628v-5.4261h-9.8677v-21.96461z"/></g></svg>