<svg fill="none" height="41" viewBox="0 0 245 41" width="245" xmlns="http://www.w3.org/2000/svg"><g fill="#1a1a1a"><path d="m214.475 32.9309v-20.4099h5.349v3.6329h.256c.426-1.2049 1.137-2.1542 2.135-2.8479s2.185-1.0406 3.56-1.0406c1.4 0 2.587.353 3.56 1.0589.986.6937 1.643 1.6369 1.972 2.8296h.219c.414-1.1805 1.168-2.1237 2.264-2.8296 1.095-.7059 2.385-1.0589 3.87-1.0589 1.898 0 3.444.6025 4.637 1.8074 1.205 1.2048 1.807 2.9148 1.807 5.1298v13.7283h-5.659v-12.5964c0-1.1441-.304-1.996-.913-2.5558-.596-.5599-1.345-.8398-2.245-.8398-1.023 0-1.826.3286-2.41.9858-.572.6451-.858 1.497-.858 2.5558v12.4504h-5.477v-12.7425c0-.9858-.286-1.7708-.858-2.355-.572-.5963-1.32-.8945-2.245-.8945-.633 0-1.199.1582-1.698.4747-.499.3164-.895.7545-1.187 1.3144-.292.5476-.438 1.2048-.438 1.9716v12.2313z"/><path d="m206.428 24.2595v-11.7385h5.641v20.4099h-5.422v-3.7059h-.219c-.462 1.1806-1.223 2.142-2.282 2.8844-1.059.7303-2.355 1.0893-3.888 1.0771-1.364 0-2.568-.3042-3.615-.9128-1.035-.6207-1.844-1.503-2.428-2.6471-.572-1.144-.858-2.5132-.858-4.1075v-12.9981h5.641v12.0123c0 1.1927.322 2.142.968 2.8479.645.6937 1.503 1.0345 2.574 1.0223.681 0 1.314-.1521 1.898-.4564.584-.3164 1.059-.785 1.424-1.4057.377-.6207.566-1.3813.566-2.2819z"/><path d="m191.444 18.3446-5.167.3103c-.134-.645-.493-1.1987-1.077-1.6612-.584-.4747-1.369-.712-2.355-.712-.876 0-1.612.1826-2.209.5477-.584.3651-.876.8519-.876 1.4604 0 .4869.189.9067.566 1.2597.389.3408 1.053.6085 1.99.8032l3.706.7303c1.984.4016 3.462 1.0527 4.436 1.9533s1.46 2.0873 1.46 3.5599c0 1.3509-.389 2.5315-1.168 3.5416-.779.998-1.85 1.783-3.213 2.355-1.363.5598-2.927.8398-4.692.8398-2.702 0-4.856-.566-6.462-1.6978-1.595-1.1319-2.526-2.6654-2.793-4.6005l5.531-.2921c.183.8276.596 1.4544 1.241 1.8804.646.4259 1.473.6389 2.483.6389.986 0 1.783-.1947 2.392-.5842.62-.3894.931-.8823.931-1.4787 0-1.0101-.876-1.6917-2.629-2.0446l-3.523-.7302c-1.984-.4017-3.463-1.0893-4.437-2.0629-.973-.9737-1.46-2.2212-1.46-3.7425 0-1.3144.359-2.4462 1.077-3.3955s1.722-1.6796 3.012-2.1907c1.303-.5112 2.824-.7668 4.564-.7668 2.58 0 4.607.5477 6.079 1.6431 1.485 1.0831 2.349 2.5618 2.593 4.4361z"/><path d="m153.092 40.5618v-28.0408h5.55v3.4504h.255c.256-.5599.621-1.1258 1.096-1.6978.474-.572 1.095-1.0467 1.862-1.424.767-.3894 1.716-.5842 2.848-.5842 1.497 0 2.866.3895 4.107 1.1684 1.254.7667 2.258 1.929 3.012 3.4869.755 1.5578 1.132 3.5051 1.132 5.8418 0 2.2637-.365 4.1805-1.095 5.7505-.73 1.5579-1.722 2.7384-2.976 3.5417-1.241.8032-2.641 1.2048-4.199 1.2048-1.095 0-2.026-.1825-2.793-.5476-.766-.3652-1.393-.8215-1.88-1.3692-.475-.5599-.846-1.1197-1.114-1.6795h-.164v10.8986zm9.803-11.7932c.925 0 1.704-.2556 2.337-.7667.633-.5112 1.114-1.2171 1.442-2.1177.329-.9128.493-1.9594.493-3.14 0-1.1805-.164-2.215-.493-3.1034-.316-.9007-.791-1.6065-1.424-2.1177s-1.418-.7667-2.355-.7667c-.912 0-1.691.2494-2.336.7484-.633.4869-1.12 1.1806-1.461 2.0812-.328.8884-.493 1.9412-.493 3.1582 0 1.2049.171 2.2577.511 3.1583.341.9006.828 1.6065 1.461 2.1176.645.499 1.418.7485 2.318.7485z"/><path d="m145.045 32.9309v-20.4099h5.641v20.4099zm2.811-23.02044c-.84 0-1.558-.27993-2.154-.83977s-.894-1.2353-.894-2.02638c0-.79109.298-1.46046.894-2.00814.596-.55984 1.314-.83976 2.154-.83976.852 0 1.576.27992 2.173.83976.596.54768.894 1.21705.894 2.00814 0 .79108-.298 1.46654-.894 2.02638-.597.55984-1.321.83977-2.173.83977z"/><path d="m133.438 33.3326c-2.057 0-3.84-.4382-5.349-1.3145-1.497-.8884-2.653-2.1176-3.469-3.6876-.803-1.5822-1.204-3.4199-1.204-5.5132 0-2.1177.401-3.9615 1.204-5.5315.816-1.5822 1.972-2.8114 3.469-3.6877 1.509-.8884 3.292-1.3327 5.349-1.3327 2.069 0 3.852.4443 5.349 1.3327 1.509.8763 2.665 2.1055 3.468 3.6877.816 1.57 1.224 3.4138 1.224 5.5315 0 2.0933-.408 3.931-1.224 5.5132-.803 1.57-1.959 2.7992-3.468 3.6876-1.497.8763-3.28 1.3145-5.349 1.3145zm.036-4.4179c.938 0 1.723-.2617 2.355-.785.633-.5355 1.108-1.2658 1.424-2.1907.329-.925.493-1.9777.493-3.1583 0-1.1927-.164-2.2454-.493-3.1582-.316-.9128-.791-1.6308-1.424-2.1542-.632-.5233-1.417-.785-2.355-.785-.949 0-1.746.2617-2.391.785-.633.5234-1.114 1.2414-1.442 2.1542-.317.9128-.475 1.9655-.475 3.1582 0 1.1806.158 2.2333.475 3.1583.328.9249.809 1.6552 1.442 2.1907.645.5233 1.442.785 2.391.785z"/><path d="m111.9 41c-2.751 0-4.905-.5477-6.463-1.6431-1.558-1.0831-2.507-2.4341-2.848-4.0527l5.222-.6937c.158.4138.407.7971.748 1.1501.341.3529.797.6328 1.369.8397.572.2191 1.272.3286 2.1.3286 1.229 0 2.245-.2981 3.048-.8945.804-.5842 1.205-1.5761 1.205-2.9757v-3.7424h-.237c-.244.5598-.615 1.0953-1.114 1.6065s-1.138.925-1.917 1.2414-1.71.4746-2.793.4746c-1.533 0-2.927-.3529-4.18-1.0588-1.242-.718-2.24-1.8134-2.994-3.286-.743-1.4727-1.114-3.3347-1.114-5.5863 0-2.3245.377-4.2596 1.132-5.8053.767-1.5457 1.777-2.7019 3.03-3.4686 1.254-.7789 2.629-1.1684 4.126-1.1684 1.144 0 2.1.1948 2.866.5842.779.3773 1.412.852 1.899 1.424s.852 1.1379 1.095 1.6978h.219v-3.4504h5.568v20.629c0 1.7282-.426 3.1765-1.277 4.3449-.852 1.1683-2.027 2.0446-3.524 2.6288s-3.219.8763-5.166.8763zm.109-12.6147c1.363 0 2.416-.5051 3.159-1.5153.754-1.0101 1.131-2.4097 1.131-4.1988 0-1.1927-.17-2.2272-.511-3.1035-.328-.8884-.809-1.576-1.442-2.0629-.633-.499-1.412-.7484-2.337-.7484s-1.71.2555-2.355.7667c-.633.499-1.113 1.1927-1.442 2.0811-.328.8885-.493 1.9108-.493 3.067 0 1.1684.165 2.1846.493 3.0487.329.852.809 1.5092 1.442 1.9716.645.4625 1.43.6938 2.355.6938z"/><path d="m91.1649 33.3326c-2.0568 0-3.8398-.4382-5.3489-1.3145-1.497-.8884-2.6532-2.1176-3.4686-3.6876-.8032-1.5822-1.2049-3.4199-1.2049-5.5132 0-2.1177.4017-3.9615 1.2049-5.5315.8154-1.5822 1.9716-2.8114 3.4686-3.6877 1.5091-.8884 3.2921-1.3327 5.3489-1.3327 2.069 0 3.852.4443 5.349 1.3327 1.5091.8763 2.6653 2.1055 3.4686 3.6877.8155 1.57 1.2235 3.4138 1.2235 5.5315 0 2.0933-.408 3.931-1.2235 5.5132-.8033 1.57-1.9595 2.7992-3.4686 3.6876-1.497.8763-3.28 1.3145-5.349 1.3145zm.0365-4.4179c.9372 0 1.7222-.2617 2.355-.785.6329-.5355 1.1076-1.2658 1.424-2.1907.3286-.925.4929-1.9777.4929-3.1583 0-1.1927-.1643-2.2454-.4929-3.1582-.3164-.9128-.7911-1.6308-1.424-2.1542-.6328-.5233-1.4178-.785-2.355-.785-.9492 0-1.7464.2617-2.3915.785-.6328.5234-1.1136 1.2414-1.4422 2.1542-.3164.9128-.4746 1.9655-.4746 3.1582 0 1.1806.1582 2.2333.4746 3.1583.3286.9249.8094 1.6552 1.4422 2.1907.6451.5233 1.4423.785 2.3915.785z"/><path d="m63 32.9309v-27.20101h5.7323v22.45451h11.6654v4.7465z"/></g><path d="m37.3947 40c6.4328-.1311 11.6053-5.3927 11.6053-11.8611 0-3.1458-1.2488-6.1627-3.4718-8.3871l-19.7387-19.7518v12.2771c0 2.0532.8151 4.0224 2.2661 5.4743l4.6239 4.627.0126.0123 7.7531 7.7583c.2518.2519.2518.6604 0 .9123-.2517.252-.66.252-.9117 0l-2.6725-2.6742h-24.722l-2.67245 2.6742c-.25179.252-.66001.252-.91179 0-.25179-.2519-.25179-.6604-.00001-.9123l7.75315-7.7583.0126-.0123 4.6239-4.627c1.451-1.4519 2.2661-3.4211 2.2661-5.4743v-12.2771l-19.73875 19.7518c-2.22293 2.2244-3.47175 5.2413-3.47175 8.3871 0 6.4684 5.17252 11.73 11.6053 11.8611z" fill="#ff0a0a"/></svg>