<svg fill="none" height="40" viewBox="0 0 249 40" width="249" xmlns="http://www.w3.org/2000/svg"><path d="m39.2001 32c6.6274 0 12-5.3726 12-12s-5.3726-12-12-12c-6.2199 0-11.3345 4.7321-11.94 10.7925-2.4517-1.1089-5.1004-1.7716-7.8128-1.946 1.5122-9.54739 9.7801-16.8465 19.7528-16.8465 11.0457 0 20 8.95431 20 20 0 10.6428-8.3131 19.344-18.8001 19.9646v.0354h-13.1805v-1.7455c0-2.2675-.9351-4.4724-2.649-6.1209-1.7188-1.6532-4.0797-2.6063-6.5705-2.6063s-4.8517.9531-6.5705 2.6063c-1.71386 1.6485-2.64901 3.8534-2.64901 6.1209v1.7455h-8.78049v-1.7882c0-4.6747 1.94004-9.1212 5.33341-12.372 3.28481-3.1468 7.67129-4.9296 12.23769-5.0348.1428-.0033.2858-.005.4289-.005.1108 0 .2215.001.3322.003 4.6011.0821 9.0264 1.8677 12.3344 5.0368 1.8325 1.7555 3.2412 3.8597 4.1493 6.1602z" fill="#5233dd"/><path d="m21.677 34.9245c.9751.848 1.523 1.9982 1.523 3.1975v1.878h-10.4v-1.878c0-1.1993.5479-2.3495 1.523-3.1975.9752-.8481 2.2979-1.3245 3.677-1.3245s2.7018.4764 3.677 1.3245z" fill="#5233dd"/><path d="m43.7818 18.0363c-1.446 0-2.6181-1.1721-2.6181-2.6181v-.6546c0-1.0844-.8792-1.9636-1.9637-1.9636s-1.9636.8791-1.9636 1.9636v.6546c0 1.446-1.1722 2.6181-2.6182 2.6181h-.6546c-1.0844 0-1.9636.8792-1.9636 1.9637s.8792 1.9636 1.9636 1.9636h.6546c1.446 0 2.6182 1.1722 2.6182 2.6182v.6546c0 1.0845.8791 1.9636 1.9636 1.9636s1.9637-.8791 1.9637-1.9636v-.6546c0-1.446 1.1721-2.6182 2.6181-2.6182h.6546c1.0845 0 1.9636-.8791 1.9636-1.9636s-.8791-1.9637-1.9636-1.9637z" fill="#5233dd"/><path d="m11.2001 3.20004c0 1.76728 1.4327 3.19995 3.2 3.19995h.7999c1.3255 0 2.4 1.07452 2.4 2.4 0 1.32551-1.0745 2.40001-2.4 2.40001h-.7999c-1.7673 0-3.2 1.4327-3.2 3.1999v.8001c0 1.3255-1.0745 2.4-2.39999 2.4-1.32548 0-2.4-1.0745-2.4-2.4v-.8c0-1.7673-1.43269-3.2-3.2-3.2h-.80011c-1.32548 0-2.4-1.0745-2.4-2.40001 0-1.32548 1.07452-2.4 2.4-2.4h.80012c1.7673 0 3.19999-1.43268 3.19999-3.19999v-.8c0-1.32548 1.07452-2.4 2.4-2.4 1.32549 0 2.39999 1.07452 2.39999 2.4z" fill="#5233dd"/><g fill="#1d0f5f"><path d="m239.278 13.2388c6.009 0 8.909 4.1979 8.909 9.0604v9.1302h-6.289v-8.0458c0-2.2039-.803-4.0229-3.109-4.0229s-3.075 1.819-3.075 4.0229v8.0458h-6.289v-8.0458c0-2.2039-.769-4.0229-3.075-4.0229s-3.109 1.819-3.109 4.0229v8.0458h-6.29v-9.1302c0-4.8625 2.9-9.0604 8.91-9.0604 3.284 0 5.66 1.2944 6.743 3.4283 1.153-2.1339 3.669-3.4283 6.674-3.4283z"/><path d="m205.65 25.8323c2.027 0 2.9-1.854 2.9-4.0579v-7.8359h6.289v8.6055c0 5.1424-3.005 9.4102-9.189 9.4102s-9.189-4.2678-9.189-9.4102v-8.6055h6.289v7.8359c0 2.2039.874 4.0579 2.9 4.0579z"/><path d="m187.213 31.9892c-3.948 0-6.498-1.3643-8.001-4.023l4.542-2.5537c.629 1.1195 1.573 1.6792 3.145 1.6792 1.293 0 1.887-.4548 1.887-1.0145 0-2.1339-9.224.035-9.224-6.7515 0-3.2883 2.795-5.9469 7.547-5.9469 4.157 0 6.429 2.0289 7.442 3.9879l-4.542 2.5887c-.385-1.0495-1.573-1.6792-2.761-1.6792-.908 0-1.397.3848-1.397.9096 0 2.1688 9.224.1749 9.224 6.7515 0 3.6731-3.599 6.0519-7.862 6.0519z"/><path d="m165.241 39.4753h-6.289v-16.8263c0-5.3523 4.018-9.2353 9.608-9.2353 5.45 0 9.608 4.1629 9.608 9.2353 0 5.5971-3.703 9.3052-9.259 9.3052-1.292 0-2.585-.3848-3.668-.9795zm3.319-13.4331c1.991 0 3.319-1.5392 3.319-3.3582 0-1.8541-1.328-3.3583-3.319-3.3583-1.992 0-3.319 1.5042-3.319 3.3583 0 1.819 1.327 3.3582 3.319 3.3582z"/><path d="m152.652 12.0844c-2.062 0-3.774-1.7141-3.774-3.77803s1.712-3.77805 3.774-3.77805c2.061 0 3.773 1.71412 3.773 3.77805s-1.712 3.77803-3.773 3.77803zm-3.145 1.8541h6.289v17.4909h-6.289z"/><path d="m137.441 31.9542c-5.451 0-9.609-4.1979-9.609-9.3052 0-5.0724 4.158-9.2702 9.609-9.2702 5.45 0 9.608 4.1978 9.608 9.2702 0 5.1073-4.158 9.3052-9.608 9.3052zm0-5.912c1.991 0 3.319-1.5392 3.319-3.3582 0-1.8541-1.328-3.3933-3.319-3.3933-1.992 0-3.32 1.5392-3.32 3.3933 0 1.819 1.328 3.3582 3.32 3.3582z"/><path d="m115.957 40c-4.333 0-7.477-1.924-9.085-5.3522l5.206-2.7986c.559 1.1894 1.608 2.4138 3.774 2.4138 2.271 0 3.773-1.4343 3.948-3.953-.838.7346-2.166 1.2944-4.158 1.2944-4.856 0-8.77-3.7431-8.77-8.9904 0-5.0724 4.158-9.2003 9.609-9.2003 5.59 0 9.608 3.883 9.608 9.2353v6.9264c0 6.2967-4.367 10.4246-10.132 10.4246zm.419-14.3076c1.887 0 3.319-1.2943 3.319-3.2183 0-1.8891-1.432-3.1484-3.319-3.1484-1.852 0-3.319 1.2593-3.319 3.1484 0 1.924 1.467 3.2183 3.319 3.2183z"/><path d="m96.2038 31.9542c-5.4505 0-9.6083-4.1979-9.6083-9.3052 0-5.0724 4.1578-9.2702 9.6083-9.2702 5.4502 0 9.6082 4.1978 9.6082 9.2702 0 5.1073-4.158 9.3052-9.6082 9.3052zm0-5.912c1.9916 0 3.3193-1.5392 3.3193-3.3582 0-1.8541-1.3277-3.3933-3.3193-3.3933-1.9915 0-3.3192 1.5392-3.3192 3.3933 0 1.819 1.3277 3.3582 3.3192 3.3582z"/><path d="m75.143 7.81662v17.66588h10.412v5.9469h-11.2855c-3.9831 0-5.5903-2.0989-5.5903-5.4222v-18.19058z"/></g></svg>