<svg fill="none" height="28" viewBox="0 0 129 28" width="129" xmlns="http://www.w3.org/2000/svg"><g fill="#fff"><path clip-rule="evenodd" d="m26.0089 8.19118c-.5089-1.16364-1.1824-2.24807-2-3.22-1.2085-1.47966-2.7167-2.68661-4.4253-3.5414-1.7086-.854779-3.5789-1.3380286-5.4877-1.4179386s-3.8129.2453296-5.587.9543296c-1.77403.708989-3.37783 1.785659-4.7058 3.159139-1.32798 1.37347-2.35003 3.01262-2.998876 4.80957-.64885 1.79692-.9098 3.71092-.7656605 5.61592.1441505 1.9051.6900995 3.758 1.6019365 5.4368.91184 1.6789 2.16889 3.1456 3.68841 4.3036.975.7579 2.05235 1.374 3.19999 1.83 1.609.6594 3.3311.999 5.07 1 3.5894-.0079 7.0292-1.4387 9.5655-3.9787 2.5362-2.54 3.9619-5.9819 3.9645-9.5713.0026-1.8515-.3787-3.68342-1.12-5.38002zm-12.42-5.43001c1.5616-.00016 3.1043.34114 4.52 1-.3452.14917-.7082.25336-1.08.31001-1.2234.17709-2.3567.74507-3.2308 1.61917-.8741.87409-1.4421 2.00743-1.6192 3.23083-.0777.6861-.3898 1.32442-.8835 1.80722s-1.1388.7804-1.8265.8428c-1.2234.1771-2.35673.7451-3.23082 1.6192s-1.44208 2.0074-1.61917 3.2308c-.05996.6524-.33831 1.2655-.79 1.74-.77935-1.6467-1.12945-3.4639-1.01773-5.2823s.68163-3.57902 1.6567-5.11802c.97506-1.53891 2.3236-2.80619 3.92012-3.68386 1.5965-.87767 3.3891-1.3372 5.2109-1.33585zm-8.26999 17.81003c.04001-.0367.08001-.0722.12001-.1078.07998-.0711.16001-.1422.23999-.2222.88965-.8625 1.46071-2.0011 1.62-3.23.06458-.6908.37299-1.336.86999-1.82.4783-.4978 1.122-.8037 1.81-.86 1.2234-.1771 2.3567-.7451 3.2308-1.6192s1.4421-2.0074 1.6192-3.23082c.0433-.7225.3533-1.4032.87-1.91.4901-.48815 1.1399-.7829 1.83-.83001 1.1239-.15463 2.1721-.65428 3-1.42999.9427.78207 1.7413 1.72289 2.36 2.78-.038.0513-.0816.0983-.13.14-.4773.5022-1.1202.8148-1.81.88-1.2247.174-2.3597.741-3.2344 1.61562-.8746.8747-1.4416 2.0097-1.6156 3.2344-.0705.6884-.3768 1.3313-.867 1.8197-.4903.4885-1.1343.7924-1.823.8603-1.227.1757-2.3645.7426-3.2437 1.6163-.8791.8738-1.453 2.0078-1.6363 3.2337-.0538.4887-.2217.958-.49 1.37-1.026-.6092-1.9449-1.3828-2.71999-2.29zm8.26999 3.86c-1.0147.0011-2.0246-.1403-3-.42.3337-.622.5506-1.2999.64-2 .0701-.6869.375-1.3286.8632-1.8168s1.1299-.7931 1.8168-.8632c1.2252-.1751 2.3608-.7422 3.2369-1.6165.876-.8742 1.4455-2.0087 1.6231-3.2335.0701-.6869.375-1.3286.8632-1.8168s1.1299-.7931 1.8168-.8632c.922-.1199 1.8008-.4632 2.56-1 .4216 1.5979.4715 3.2711.146 4.8913s-1.0179 3.1444-2.0239 4.4555c-1.006 1.311-2.2989 2.3743-3.7797 3.1081-1.4807.7338-3.1098 1.1187-4.7624 1.1251z" fill-rule="evenodd"/><path clip-rule="evenodd" d="m118.951 15.0879v-.3125c0-1.5625.475-2.8158 1.425-3.7598.957-.9505 2.181-1.42576 3.672-1.42576 1.504 0 2.679.44596 3.526 1.33786.853.892 1.279 2.1192 1.279 3.6817v1.0254h-6.938c.052.701.242 1.2707.571 1.709.397.5143.976.7714 1.738.7714.534 0 .993-.1269 1.377-.3808.391-.2604.703-.5632.938-.9082l2.148 1.25c-.326.6445-.872 1.1751-1.641 1.5918-.768.4166-1.692.625-2.773.625-1.66 0-2.962-.4753-3.906-1.4258s-1.416-2.2103-1.416-3.7793zm6.982-1.2402h-3.984c.077-.5403.242-.9928.498-1.3575.364-.5208.895-.7812 1.592-.7812.612 0 1.08.1888 1.406.5664.325.3711.488.8301.488 1.3769z" fill-rule="evenodd"/><path d="m108.201 9.88281v6.24019c0 1.4649.322 2.5131.966 3.1446.652.625 1.482.9375 2.491.9375.657 0 1.246-.1237 1.767-.3711.528-.2474.938-.5827 1.231-1.0059h.039l.068 1.1719h2.822v-10.11719h-2.959v6.74809c-.169.3776-.423.6933-.761.9472-.339.2474-.723.3711-1.153.3711-.475 0-.852-.1302-1.132-.3906-.274-.2669-.411-.7389-.411-1.416v-6.25979z"/><path clip-rule="evenodd" d="m96.2788 15.0977v-.3125c0-1.5365.4037-2.7702 1.2109-3.7012.8073-.9375 1.849-1.40626 3.1253-1.40626.703 0 1.295.1302 1.777.39066.488.2604.85.5859 1.084.9765h.039l.059-1.17185h2.812v14.20895h-2.949v-5.1512c-.26.3901-.618.6977-1.074.9227-.456.2279-1.039.3418-1.748.3418-1.3088 0-2.3603-.4655-3.1546-1.3965-.7877-.9375-1.1816-2.1712-1.1816-3.7011zm3.0274.1171c0 .8529.1725 1.53.5175 2.0313.3453.5013.8663.7519 1.5623.7519.502 0 .928-.1334 1.28-.4003.358-.2735.612-.6055.761-.9961v-3.3789c-.149-.3581-.4-.6706-.752-.9375-.351-.267-.781-.4004-1.289-.4004-.696 0-1.217.2506-1.5623.7519-.345.5013-.5175 1.1784-.5175 2.0313z" fill-rule="evenodd"/><path d="m90.2065 9.88281v10.11719h2.9883v-6.4355c.1693-.4102.433-.7487.791-1.0157.3646-.2669.7683-.4004 1.211-.4004.1627 0 .3092.0098.4394.0293.1367.0131.2637.0358.3809.0684v-2.50001c-.0586-.02604-.1595-.05208-.3027-.07812-.1433-.03255-.2865-.04883-.4297-.04883-.4623 0-.8789.13672-1.25.41016-.3711.2734-.6608.6055-.8692.9961h-.0488l-.0586-1.14259z"/><path clip-rule="evenodd" d="m78.2749 15.0879v-.3125c0-1.5886.4883-2.8483 1.4648-3.7793.9766-.9375 2.2494-1.40626 3.8184-1.40626s2.8385.46876 3.8086 1.40626c.9766.931 1.4648 2.1907 1.4648 3.7793v.3125c0 1.5885-.4882 2.8516-1.4648 3.7891-.9701.9375-2.2396 1.4062-3.8086 1.4062s-2.8418-.4687-3.8184-1.4062c-.9765-.9375-1.4648-2.2006-1.4648-3.7891zm3.0273-.4688v.625c0 .9115.1954 1.6114.586 2.0997.3906.4817.9472.7226 1.6699.7226s1.276-.2409 1.6602-.7226c.3906-.4883.5859-1.1882.5859-2.0997v-.625c0-.9114-.1986-1.608-.5957-2.0898-.3906-.4818-.9408-.7227-1.6504-.7227s-1.263.2409-1.6602.7227c-.3971.4818-.5957 1.1784-.5957 2.0898z" fill-rule="evenodd"/><path d="m71.5483 9.88281v2.14849h1.5137v4.9316c0 1.1458.2865 1.9857.8594 2.5195.5794.5274 1.3542.791 2.3242.791.3581 0 .6803-.0293.9668-.0879.293-.0585.5176-.1269.6738-.205v-2.0996c-.1367.0586-.2799.1074-.4297.1464-.1497.0326-.3027.0489-.4589.0489-.319 0-.5664-.0879-.7422-.2637-.1693-.1823-.2539-.5208-.2539-1.0156v-4.7656h1.9238v-2.14849h-1.9238v-2.50976h-2.92v2.50976z"/><path clip-rule="evenodd" d="m60.7983 15.0879v-.3125c0-1.5886.4883-2.8483 1.4649-3.7793.9765-.9375 2.2493-1.40626 3.8183-1.40626 1.5691 0 2.8386.46876 3.8086 1.40626.9766.931 1.4649 2.1907 1.4649 3.7793v.3125c0 1.5885-.4883 2.8516-1.4649 3.7891-.97.9375-2.2395 1.4062-3.8086 1.4062-1.569 0-2.8418-.4687-3.8183-1.4062-.9766-.9375-1.4649-2.2006-1.4649-3.7891zm3.0274-.4688v.625c0 .9115.1953 1.6114.5859 2.0997.3906.4817.9473.7226 1.6699.7226.7227 0 1.2761-.2409 1.6602-.7226.3906-.4883.5859-1.1882.5859-2.0997v-.625c0-.9114-.1985-1.608-.5957-2.0898-.3906-.4818-.9407-.7227-1.6504-.7227-.7096 0-1.263.2409-1.6601.7227s-.5957 1.1784-.5957 2.0898z" fill-rule="evenodd"/><path d="m53.5249 9.88281h-2.9883l3.8574 10.11719h2.7051l3.8379-10.11719h-2.666l-2.0606 5.87889c-.0716.2344-.1302.4492-.1757.6445-.0456.1954-.0814.3809-.1075.5567h-.0585c-.0261-.1758-.0619-.3613-.1075-.5567-.0455-.1953-.1074-.4101-.1855-.6445z"/><path clip-rule="evenodd" d="m40.8022 15.0879v-.3125c0-1.5625.4753-2.8158 1.4258-3.7598.9571-.9505 2.181-1.42576 3.6719-1.42576 1.5039 0 2.679.44596 3.5254 1.33786.8529.892 1.2793 2.1192 1.2793 3.6817v1.0254h-6.9384c.0521.701.2425 1.2707.5712 1.709.3971.5143.9766.7714 1.7383.7714.5338 0 .9928-.1269 1.3769-.3808.3907-.2604.7032-.5632.9375-.9082l2.1485 1.25c-.3255.6445-.8724 1.1751-1.6407 1.5918-.7682.4166-1.6927.625-2.7734.625-1.6601 0-2.9622-.4753-3.9062-1.4258s-1.4161-2.2103-1.4161-3.7793zm2.9984-1.2402h3.9841v-.1954c0-.5468-.1628-1.0058-.4883-1.3769-.3255-.3776-.7943-.5664-1.4063-.5664-.6966 0-1.2272.2604-1.5918.7812-.2552.3647-.4212.8172-.4977 1.3575z" fill-rule="evenodd"/><path d="m34.73 9.88281v10.11719h2.9883v-6.4355c.1692-.4102.4329-.7487.791-1.0157.3646-.2669.7682-.4004 1.2109-.4004.1628 0 .3093.0098.4395.0293.1367.0131.2636.0358.3808.0684v-2.50001c-.0586-.02604-.1595-.05208-.3027-.07812-.1432-.03255-.2865-.04883-.4297-.04883-.4622 0-.8789.13672-1.25.41016-.3711.2734-.6608.6055-.8691.9961h-.0489l-.0586-1.14259z"/></g></svg>